<svg width="20" height="20" viewBox="0 0 20 20" fill="none" xmlns="http://www.w3.org/2000/svg">
    <mask id="mask0_3328_1461" style="mask-type:luminance" maskUnits="userSpaceOnUse" x="1" y="1" width="17" height="17">
        <path d="M18 1H1V18H18V1Z" fill="white"/>
    </mask>
    <g mask="url(#mask0_3328_1461)">
        <path d="M9.50017 14.2812V11.0938C9.50017 11.0938 6.31267 9.5 6.84392 8.4375C7.90642 6.3125 9.50017 5.25 10.5627 4.71875C11.6252 7.375 14.2814 8.4375 14.2814 8.4375M5.25016 9.5H2.06266M4.71891 7.375H1.53141M1.71506 13.2131C1.59606 13.5472 1.53125 13.9069 1.53125 14.2814C1.53125 16.0414 2.95872 17.4689 4.71875 17.4689C6.47932 17.4689 7.90626 16.0414 7.90626 14.2814C7.90626 13.1807 7.34898 12.1978 6.50163 11.6252H2.59375M7.90642 10.1153C7.90642 10.1153 8.80264 7.90636 11.4589 6.31261M17.4689 14.2812C17.4689 12.5212 16.0414 11.0938 14.2814 11.0938C12.5214 11.0938 11.0939 12.5212 11.0939 14.2812C11.0939 16.0413 12.5214 17.4688 14.2814 17.4688C16.0414 17.4688 17.4689 16.0413 17.4689 14.2812ZM13.2189 2.59375C13.2189 2.00725 12.7429 1.53125 12.1564 1.53125C11.5699 1.53125 11.0939 2.00725 11.0939 2.59375C11.0939 3.18025 11.5699 3.65625 12.1564 3.65625C12.7429 3.65625 13.2189 3.18025 13.2189 2.59375Z" stroke="#F35E24" stroke-width="1.25" stroke-linecap="round" stroke-linejoin="round"/>
    </g>
</svg>
