<svg width="16" height="14" viewBox="0 0 16 14" fill="none" xmlns="http://www.w3.org/2000/svg">
    <path d="M6.46736 2.05874L5.05559 3.4705H2.35317V11.9411H13.6473V3.4705H10.9449L9.53312 2.05874H6.46736ZM5.88258 0.646973H10.1179L11.5296 2.05874H14.3532C14.743 2.05874 15.0591 2.37478 15.0591 2.76462V12.647C15.0591 13.0368 14.743 13.3529 14.3532 13.3529H1.64729C1.25744 13.3529 0.941406 13.0368 0.941406 12.647V2.76462C0.941406 2.37478 1.25744 2.05874 1.64729 2.05874H4.47082L5.88258 0.646973ZM8.00023 11.2352C5.85606 11.2352 4.11788 9.49704 4.11788 7.35286C4.11788 5.20869 5.85606 3.4705 8.00023 3.4705C10.1444 3.4705 11.8826 5.20869 11.8826 7.35286C11.8826 9.49704 10.1444 11.2352 8.00023 11.2352ZM8.00023 9.82344C9.3647 9.82344 10.4708 8.71733 10.4708 7.35286C10.4708 5.98838 9.3647 4.88227 8.00023 4.88227C6.63576 4.88227 5.52964 5.98838 5.52964 7.35286C5.52964 8.71733 6.63576 9.82344 8.00023 9.82344Z" fill="#555656"/>
</svg>
