<svg width="25" height="24" viewBox="0 0 25 24" fill="none" xmlns="http://www.w3.org/2000/svg">
    <path d="M4.50391 16V4H2.50391V2H5.50391C6.0562 2 6.50391 2.44772 6.50391 3V15H18.9423L20.9423 7H8.50391V5H22.2231C22.7754 5 23.2231 5.44772 23.2231 6C23.2231 6.08176 23.2131 6.16322 23.1932 6.24254L20.6932 16.2425C20.582 16.6877 20.182 17 19.7231 17H5.50391C4.95163 17 4.50391 16.5523 4.50391 16ZM6.50391 23C5.39934 23 4.50391 22.1046 4.50391 21C4.50391 19.8954 5.39934 19 6.50391 19C7.60848 19 8.50391 19.8954 8.50391 21C8.50391 22.1046 7.60848 23 6.50391 23ZM18.5039 23C17.3993 23 16.5039 22.1046 16.5039 21C16.5039 19.8954 17.3993 19 18.5039 19C19.6085 19 20.5039 19.8954 20.5039 21C20.5039 22.1046 19.6085 23 18.5039 23Z" fill="#E1E1E1"/>
</svg>
