<svg width="24" height="24" viewBox="0 0 24 24" fill="none" xmlns="http://www.w3.org/2000/svg">
    <path d="M14.99 8.75052L14.644 17.7505M9.856 17.7505L9.51 8.75052M19.478 5.54052C19.82 5.59252 20.16 5.64752 20.5 5.70652M19.478 5.54052L18.41 19.4235C18.3664 19.9887 18.1111 20.5167 17.695 20.9018C17.279 21.2868 16.7329 21.5007 16.166 21.5005H8.334C7.7671 21.5007 7.22102 21.2868 6.80498 20.9018C6.38894 20.5167 6.13359 19.9887 6.09 19.4235L5.022 5.54052M19.478 5.54052C18.3239 5.36604 17.1638 5.23362 16 5.14352M5.022 5.54052C4.68 5.59152 4.34 5.64652 4 5.70552M5.022 5.54052C6.17613 5.36604 7.33623 5.23362 8.5 5.14352M16 5.14352V4.22752C16 3.04752 15.09 2.06352 13.91 2.02652C12.8036 1.99116 11.6964 1.99116 10.59 2.02652C9.41 2.06352 8.5 3.04852 8.5 4.22752V5.14352M16 5.14352C13.5037 4.9506 10.9963 4.9506 8.5 5.14352" stroke="#B7B8B9" stroke-width="1.5" stroke-linecap="round" stroke-linejoin="round"/>
</svg>
