<svg width="23" height="24" viewBox="0 0 23 24" fill="none" xmlns="http://www.w3.org/2000/svg">
    <path d="M11.5001 18.2998V14.0999C11.5001 14.0999 7.30015 11.9999 8.00015 10.5999C9.40013 7.79994 11.5001 6.39995 12.9001 5.69996C14.3001 9.19992 17.8 10.5999 17.8 10.5999M5.90016 11.9999H1.70021M5.20017 9.19992H1.00021M1.2422 16.8924C1.0854 17.3327 1 17.8065 1 18.3C1 20.6191 2.88088 22.5 5.19996 22.5C7.51974 22.5 9.39992 20.6191 9.39992 18.3C9.39992 16.8497 8.66563 15.5547 7.54914 14.8001H2.39999M9.40013 12.8106C9.40013 12.8106 10.581 9.90006 14.081 7.80008M22 18.2998C22 15.9808 20.1191 14.0999 17.8 14.0999C15.481 14.0999 13.6001 15.9808 13.6001 18.2998C13.6001 20.6189 15.481 22.4998 17.8 22.4998C20.1191 22.4998 22 20.6189 22 18.2998ZM16.4001 2.89999C16.4001 2.12719 15.7729 1.5 15.0001 1.5C14.2273 1.5 13.6001 2.12719 13.6001 2.89999C13.6001 3.67278 14.2273 4.29997 15.0001 4.29997C15.7729 4.29997 16.4001 3.67278 16.4001 2.89999Z" stroke="#89B12C" stroke-width="1.25" stroke-linecap="round" stroke-linejoin="round"/>
</svg>
