<svg width="20" height="20" viewBox="0 0 20 20" fill="none" xmlns="http://www.w3.org/2000/svg">
    <path d="M10 19.7736L4.6967 14.4703C1.76777 11.5413 1.76777 6.79263 4.6967 3.86369C7.62563 0.934759 12.3743 0.934759 15.3033 3.86369C18.2322 6.79263 18.2322 11.5413 15.3033 14.4703L10 19.7736ZM14.1247 13.2917C16.4028 11.0137 16.4028 7.32026 14.1247 5.0422C11.8467 2.76414 8.15327 2.76414 5.87521 5.0422C3.59715 7.32026 3.59715 11.0137 5.87521 13.2917L10 17.4166L14.1247 13.2917ZM10 10.8337C9.0795 10.8337 8.33333 10.0875 8.33333 9.16699C8.33333 8.24652 9.0795 7.50033 10 7.50033C10.9205 7.50033 11.6667 8.24652 11.6667 9.16699C11.6667 10.0875 10.9205 10.8337 10 10.8337Z" fill="#70B9B7"/>
</svg>
