<svg width="25" height="24" viewBox="0 0 25 24" fill="none" xmlns="http://www.w3.org/2000/svg">
    <path d="M5.87524 4H4.84233L3.375 4.39317V5.94582L4.37502 5.67782L4.37518 9H3.125V10.5H7.125V9H5.87524V4ZM10.125 4.5H21.125V6.5H10.125V4.5ZM10.125 11.5H21.125V13.5H10.125V11.5ZM10.125 18.5H21.125V20.5H10.125V18.5ZM3 16.125C3 14.9514 3.95139 14 5.125 14C6.29861 14 7.25 14.9514 7.25 16.125C7.25 16.6106 7.08683 17.0587 6.81247 17.4167L6.80771 17.4229L5.44087 19H7.125V20.5H3.12512L3.12459 19.3786L5.5967 16.535C5.6923 16.4252 5.75 16.2821 5.75 16.125C5.75 15.7798 5.47018 15.5 5.125 15.5C4.79878 15.5 4.53073 15.7501 4.50247 16.0688L4.4901 16.375H3V16.125Z" fill="#E1E1E1"/>
</svg>
