<svg width="24" height="24" viewBox="0 0 24 24" fill="none" xmlns="http://www.w3.org/2000/svg">
    <path d="M19 6.59615C19 8.5821 15.6418 10.1923 11.5 10.1923C7.35818 10.1923 4 8.5821 4 6.59615M19 6.59615C19 4.61021 15.6418 3 11.5 3C7.35818 3 4 4.61021 4 6.59615M19 6.59615V16.4038C19 18.3898 15.6418 20 11.5 20C7.35818 20 4 18.3898 4 16.4038V6.59615M19 6.59615V9.86538M4 6.59615V9.86538M19 9.86538V13.1346C19 15.1206 15.6418 16.7308 11.5 16.7308C7.35818 16.7308 4 15.1206 4 13.1346V9.86538M19 9.86538C19 11.8513 15.6418 13.4615 11.5 13.4615C7.35818 13.4615 4 11.8513 4 9.86538" stroke="#333333" stroke-width="1.5" stroke-linecap="round" stroke-linejoin="round"/>
</svg>
