<svg width="25" height="24" viewBox="0 0 25 24" fill="none" xmlns="http://www.w3.org/2000/svg">
    <path d="M21.5 13.2422V20H22.5V22H2.5V20H3.5V13.2422C2.29401 12.435 1.5 11.0602 1.5 9.5C1.5 8.67286 1.72443 7.87621 2.13322 7.19746L4.8453 2.5C5.02393 2.1906 5.35406 2 5.71132 2H19.2887C19.6459 2 19.9761 2.1906 20.1547 2.5L22.8575 7.18172C23.2756 7.87621 23.5 8.67286 23.5 9.5C23.5 11.0602 22.706 12.435 21.5 13.2422ZM19.5 13.9725C19.3358 13.9907 19.169 14 19 14C17.7409 14 16.5789 13.478 15.75 12.6132C14.9211 13.478 13.7591 14 12.5 14C11.2409 14 10.0789 13.478 9.25 12.6132C8.4211 13.478 7.25911 14 6 14C5.831 14 5.66417 13.9907 5.5 13.9725V20H19.5V13.9725ZM6.28865 4L3.85598 8.21321C3.62409 8.59843 3.5 9.0389 3.5 9.5C3.5 10.8807 4.61929 12 6 12C7.03096 12 7.94467 11.3703 8.32179 10.4295C8.6574 9.59223 9.8426 9.59223 10.1782 10.4295C10.5553 11.3703 11.469 12 12.5 12C13.531 12 14.4447 11.3703 14.8218 10.4295C15.1574 9.59223 16.3426 9.59223 16.6782 10.4295C17.0553 11.3703 17.969 12 19 12C20.3807 12 21.5 10.8807 21.5 9.5C21.5 9.0389 21.3759 8.59843 21.1347 8.19746L18.7113 4H6.28865Z" fill="#E1E1E1"/>
</svg>
