<svg width="24" height="24" viewBox="0 0 24 24" fill="none" xmlns="http://www.w3.org/2000/svg">
    <path d="M8.7 4.9L5.85 3L3 4.9V19.15C3 20.7241 4.27599 22 5.85 22H19.15C20.7241 22 22 20.7241 22 19.15V16.3H20.1V4.9L17.25 3L14.4 4.9L11.55 3L8.7 4.9ZM18.2 16.3H6.8V19.15C6.8 19.6747 6.37467 20.1 5.85 20.1C5.32533 20.1 4.9 19.6747 4.9 19.15V5.91685L5.85 5.28351L8.7 7.18351L11.55 5.28351L14.4 7.18351L17.25 5.28351L18.2 5.91685V16.3ZM19.15 20.1H8.53783C8.64286 19.8028 8.7 19.4831 8.7 19.15V18.2H20.1V19.15C20.1 19.6747 19.6747 20.1 19.15 20.1Z" fill="#333333"/>
</svg>
